HIERARCHY
ROOT Hips
{
	OFFSET -3.958830 18.904000 13.208200
	CHANNELS 6 Xposition Yposition Zposition Zrotation Yrotation Xrotation 
	JOINT LHipJoint
	{
		OFFSET 0.000000 0.000000 0.000000
		CHANNELS 3 Zrotation Yrotation Xrotation
		JOINT LeftUpLeg
		{
			OFFSET 1.800000 -1.400000 0.085000
			CHANNELS 3 Zrotation Yrotation Xrotation
			JOINT LeftLeg
			{
				OFFSET 2.215000 -6.000000 0.000000
				CHANNELS 3 Zrotation Yrotation Xrotation
				JOINT LeftFoot
				{
					OFFSET 2.500000 -6.900000 0.000000
					CHANNELS 3 Zrotation Yrotation Xrotation
					JOINT LeftToeBase
					{
						OFFSET 0.200000 -0.500000 1.950000
						CHANNELS 3 Zrotation Yrotation Xrotation
						End Site
						{
							OFFSET 0.000000 0.000000 0.000000
						}
					}
				}
			}
		}
	}
	JOINT RHipJoint
	{
		OFFSET 0.000000 0.000000 0.000000
		CHANNELS 3 Zrotation Yrotation Xrotation
		JOINT RightUpLeg
		{
			OFFSET -1.800000 -1.400000 0.085000
			CHANNELS 3 Zrotation Yrotation Xrotation
			JOINT RightLeg
			{
				OFFSET -2.215000 -6.000000 0.000000
				CHANNELS 3 Zrotation Yrotation Xrotation
				JOINT RightFoot
				{
					OFFSET -2.500000 -6.900000 0.000000
					CHANNELS 3 Zrotation Yrotation Xrotation
					JOINT RightToeBase
					{
						OFFSET -0.200000 -0.500000 1.950000
						CHANNELS 3 Zrotation Yrotation Xrotation
						End Site
						{
							OFFSET 0.000000 0.000000 0.000000
						}
					}
				}
			}
		}
	}
	JOINT LowerBack
	{
		OFFSET 0.000000 0.000000 0.000000
		CHANNELS 3 Zrotation Yrotation Xrotation
		JOINT Spine
		{
			OFFSET -0.087000 1.940000 -0.288900
			CHANNELS 3 Zrotation Yrotation Xrotation
			JOINT Spine1
			{
				OFFSET 0.000000 1.950000 0.060000
				CHANNELS 3 Zrotation Yrotation Xrotation
				JOINT Neck
				{
					OFFSET 0.000000 0.000000 0.000000
					CHANNELS 3 Zrotation Yrotation Xrotation
					JOINT Neck1
					{
						OFFSET 0.000000 1.600000 0.340000
						CHANNELS 3 Zrotation Yrotation Xrotation
						JOINT Head
						{
							OFFSET 0.000000 1.667000 -0.240000
							CHANNELS 3 Zrotation Yrotation Xrotation
							End Site
							{
								OFFSET 0.000000 0.000000 0.000000
							}
						}
					}
				}
				JOINT LeftShoulder
				{
					OFFSET 0.000000 0.000000 0.000000
					CHANNELS 3 Zrotation Yrotation Xrotation
					JOINT LeftArm
					{
						OFFSET 2.700000 1.550000 -0.730000
						CHANNELS 3 Zrotation Yrotation Xrotation
						JOINT LeftForeArm
						{
							OFFSET 5.450000 0.000000 0.000000
							CHANNELS 3 Zrotation Yrotation Xrotation
							JOINT LeftHand
							{
								OFFSET 3.450000 0.000000 0.000000
								CHANNELS 3 Zrotation Yrotation Xrotation
								JOINT LeftHandIndex1
								{
									OFFSET 0.750000 0.000000 0.000000
									CHANNELS 3 Zrotation Yrotation Xrotation
									End Site
									{
										OFFSET 0.000000 0.000000 0.000000
									}
								}
							}
						}
					}
				}
				JOINT RightShoulder
				{
					OFFSET 0.000000 0.000000 0.000000
					CHANNELS 3 Zrotation Yrotation Xrotation
					JOINT RightArm
					{
						OFFSET -2.700000 1.550000 -0.730000
						CHANNELS 3 Zrotation Yrotation Xrotation
						JOINT RightForeArm
						{
							OFFSET -5.450000 0.000000 0.000000
							CHANNELS 3 Zrotation Yrotation Xrotation
							JOINT RightHand
							{
								OFFSET -3.450000 0.000000 0.000000
								CHANNELS 3 Zrotation Yrotation Xrotation
								JOINT RightHandIndex1
								{
									OFFSET -0.750000 0.000000 0.000000
									CHANNELS 3 Zrotation Yrotation Xrotation
									End Site
									{
										OFFSET 0.000000 0.000000 0.000000
									}
								}
							}
						}
					}
				}
			}
		}
	}
}
MOTION
Frames: 8
Frame Time: 0.016667
2.558840 16.922160 -2.544590 -3.541886 -24.919138 8.740421 -15.304367 13.296115 2.399006 1.195784 -0.567962 -7.143080 -4.304063 5.765157 15.040922 -0.160837 4.265587 3.188459 0.011610 0.008910 -0.089110 18.366646 -8.804826 4.788370 5.565971 10.090027 -45.284845 8.327366 -1.726752 4.133332 0.429621 -0.943245 4.015100 0.152020 0.427400 0.143150 -3.487992 -3.496355 -7.949121 6.946645 -3.009795 16.359212 2.745898 -3.159446 7.438971 -3.332158 -3.664896 -7.864995 -9.011853 7.725498 30.705170 -2.492060 7.719010 -0.923870 -4.012379 -2.495383 1.212978 -9.209027 -9.371539 -1.722336 26.957123 -62.328133 -13.213882 -3.868469 3.174725 -0.045540 0.366170 -0.194030 0.121990 10.776692 3.760207 4.119726 35.793982 0.516917 -8.050434 21.107484 49.528984 6.949752 2.071171 -1.772025 -0.184860 0.182600 0.117160 -0.001940 
2.504540 16.964720 -2.490380 -3.319791 -23.481098 8.311900 -15.271279 13.412728 2.407320 1.102586 -0.577307 -7.033571 -3.281344 5.568299 15.607126 -0.173346 4.221529 3.187890 0.021110 0.004850 -0.067400 18.382215 -8.831278 4.797379 4.723184 9.851068 -46.614315 6.845726 -2.317157 9.689798 0.401098 -1.067283 3.942471 0.139600 0.386520 0.141250 -3.529867 -3.673694 -7.933970 7.868152 -4.103860 17.478117 2.798482 -4.063445 7.420619 -3.564295 -4.359748 -8.010529 -10.856825 7.626888 31.960089 -2.926320 7.281880 -1.023710 -4.283190 -2.710789 1.432822 -11.210124 -10.533005 -1.516599 17.077522 -58.755619 -7.503252 -3.854060 3.264094 -0.016660 0.331930 -0.170680 0.108930 11.484041 4.169251 4.033194 37.502228 0.868285 -8.708555 18.607555 47.428614 5.522038 2.094785 -1.709898 -0.175060 0.168910 0.113270 -0.013160 
2.456530 17.026460 -2.430230 -2.840929 -21.701225 8.046245 -15.213166 13.486043 2.400723 0.501523 -0.708665 -7.805627 -1.938074 5.348292 17.347234 -0.201099 4.178710 3.184365 0.046360 0.030630 -0.049340 18.424514 -8.904649 4.794282 3.455690 9.415917 -48.037103 4.881624 -2.822670 15.330233 0.338922 -1.371974 3.814551 0.149630 0.356260 0.123980 -3.657106 -3.726945 -7.882099 9.298503 -5.335188 18.678442 2.048127 -4.934975 7.097579 -3.674193 -5.178121 -7.919253 -12.831201 7.864545 32.591166 -2.825180 6.785190 -1.806870 -4.923264 -2.214312 1.412029 -14.094972 -11.185934 -1.496171 10.407677 -57.583211 -4.360916 -3.826115 3.285893 0.015160 0.295570 -0.147350 0.110980 12.269677 3.861070 3.694123 39.600038 0.918828 -9.339747 17.336618 45.252107 4.584012 2.115072 -1.648008 -0.173580 0.184380 0.101570 -0.018380 
2.395410 17.084410 -2.355570 -1.987696 -20.235086 7.688557 -15.198124 13.581235 2.432843 -0.145724 -1.085076 -9.241110 -0.887094 5.326938 20.528157 -0.202471 4.300276 3.109940 0.073840 0.055800 -0.021880 18.416504 -8.991850 4.730939 1.721345 8.697788 -48.745390 3.284101 -3.403950 21.012619 0.235335 -1.909668 3.594336 0.155700 0.313760 0.115520 -3.634022 -3.853500 -7.858696 9.415902 -6.027738 19.727684 2.022722 -5.418400 6.580427 -3.550314 -5.479504 -7.653674 -13.761021 7.394702 33.181947 -2.830620 5.922180 -3.097800 -5.911511 -1.275365 1.240414 -17.998839 -11.362418 -1.625173 2.230656 -58.324450 -0.790759 -3.794634 3.321717 0.055850 0.251780 -0.111960 0.106280 13.034705 3.045942 3.282363 41.676309 0.333952 -10.070115 17.121881 43.006771 4.029965 2.140545 -1.587794 -0.165950 0.193930 0.090820 -0.026770 
2.345210 17.157600 -2.309050 -1.020448 -19.943264 6.712151 -15.182168 13.643664 2.560406 -1.440508 -1.914417 -11.550215 0.914172 5.207393 26.022206 -0.112346 4.645309 2.951031 0.071640 0.048410 -0.009980 18.396105 -9.121285 4.653423 0.537532 8.103405 -48.546492 1.347578 -3.725120 25.948186 0.131575 -2.462296 3.389300 0.122340 0.265610 0.097270 -3.582973 -3.900269 -7.937951 9.153369 -6.321501 22.212550 1.903976 -5.399621 5.778481 -3.060116 -5.723355 -7.733023 -15.087316 7.430317 36.066517 -2.699070 5.405290 -2.866600 -8.470635 -1.386427 1.285159 -21.135333 -9.799188 -2.655247 -5.971514 -58.433191 2.923846 -3.755221 3.319951 0.095910 0.197140 -0.070560 0.099420 14.697658 3.477901 3.188205 42.942515 -0.042878 -10.662914 16.557235 39.437058 3.253252 2.210830 -1.487684 -0.150520 0.191290 0.079680 -0.027350 
2.282630 17.198640 -2.271550 0.069046 -19.720492 5.457999 -15.221515 13.653240 2.842853 -2.572069 -3.479420 -14.594545 2.268649 5.287375 33.344412 0.079143 5.435004 2.624053 0.091110 0.061480 0.020280 18.333744 -9.180598 4.476635 0.202414 7.498092 -47.541556 -1.471576 -3.550522 29.900811 0.018917 -2.907935 3.224481 0.086990 0.194560 0.093970 -3.400549 -4.096975 -8.086705 8.046582 -6.241554 25.074862 2.340111 -5.118414 5.057271 -2.465510 -5.715017 -8.017682 -16.447108 7.763813 40.197178 -2.569670 5.104500 -2.560580 -10.490350 -1.328916 1.283764 -24.853325 -8.535621 -3.795355 -14.282070 -57.855076 6.657001 -3.696519 3.329228 0.147110 0.130030 -0.005710 0.095330 15.674744 3.690634 3.370142 44.530612 -1.704223 -11.924316 17.961829 37.553274 3.174119 2.265329 -1.432571 -0.113790 0.170140 0.056040 -0.029040 
2.230500 17.218460 -2.247360 1.162465 -20.474412 4.839410 -15.325032 13.412870 3.346235 -3.112268 -6.126250 -19.032398 1.652935 6.518709 42.886651 0.384439 6.991924 2.050627 0.097980 0.059510 0.036870 18.261465 -9.031927 4.284553 -0.125635 7.188149 -46.990212 -3.674664 -3.140571 31.903612 -0.046325 -3.120616 3.144616 0.068760 0.150550 0.076550 -3.158735 -4.300819 -8.333220 6.365794 -5.657005 28.026261 3.371398 -4.410949 3.719258 -2.171240 -6.110184 -8.122331 -18.136228 8.281457 42.442811 -2.163230 4.523480 -2.967360 -12.975653 -1.027630 1.237281 -28.577426 -6.248777 -5.186052 -23.416570 -57.313902 10.648143 -3.665286 3.324581 0.200680 0.075100 0.031530 0.082230 17.722173 4.225610 3.459269 44.822329 -3.234661 -12.968158 18.407703 36.205988 3.006035 2.288857 -1.373271 -0.109710 0.178310 0.055560 -0.038480 
2.184030 17.220010 -2.235080 2.681117 -21.743564 4.211031 -15.470298 13.031364 4.030292 -3.651201 -9.238762 -23.703463 -0.200821 8.713655 52.132829 0.756500 8.824728 1.416825 0.147640 0.108860 0.078710 18.179473 -8.824065 3.981184 -0.424365 6.600114 -46.195128 -5.926567 -2.418452 31.534059 -0.081283 -3.000525 3.172295 0.089590 0.092910 0.072160 -2.874694 -4.481089 -8.600424 4.074662 -4.616301 31.346020 4.201620 -3.420928 1.973528 -1.965753 -6.541117 -7.714661 -19.538583 8.864681 43.280899 -1.818470 4.102560 -5.178710 -16.336824 -0.579197 0.549341 -31.243057 -4.708729 -6.454693 -30.339404 -54.982596 13.084084 -3.636242 3.303757 0.264760 0.015970 0.084280 0.076530 20.745199 4.665561 3.407900 44.262762 -4.698909 -13.674128 18.397875 34.750360 2.739363 2.285243 -1.333977 -0.100710 0.189480 0.040990 -0.054000 
